<svg xmlns="http://www.w3.org/2000/svg" width="37.1" height="37.12"><path d="M1080.32 3093.23a18.453 18.453 0 0 0-1.08-3.48 17.888 17.888 0 0 0-1.72-3.16 18.584 18.584 0 0 0-5-5 17.888 17.888 0 0 0-3.16-1.72 18.23 18.23 0 0 0-3.48-1.08 18.595 18.595 0 0 0-7.48 0 18.453 18.453 0 0 0-3.48 1.08 19.029 19.029 0 0 0-5.9 3.98 18.491 18.491 0 0 0-2.26 2.74 18.836 18.836 0 0 0-2.8 6.64 19.037 19.037 0 0 0 0 7.47 17.665 17.665 0 0 0 1.09 3.49 18.474 18.474 0 0 0 3.97 5.9 18.069 18.069 0 0 0 2.75 2.26 18.854 18.854 0 0 0 3.15 1.72 18.423 18.423 0 0 0 3.48 1.07 18.735 18.735 0 0 0 10.96-1.07 18.675 18.675 0 0 0 9.88-9.88 18.421 18.421 0 0 0 1.45-7.22 18.677 18.677 0 0 0-.37-3.74Zm-2.34 3.58a36.8 36.8 0 0 0-11.03-.52c-.11-.27-.23-.54-.35-.82-.33-.77-.68-1.54-1.05-2.29 6.26-2.56 8.8-6.23 8.83-6.28a15.76 15.76 0 0 1 3.6 9.91Zm-5.37-11.73c-.04.06-2.3 3.49-8.28 5.73a80.631 80.631 0 0 0-5.92-9.24 15.788 15.788 0 0 1 14.2 3.51Zm-14.26-3.5v.01h-.05a.134.134 0 0 0 .05-.01Zm-2.97 1.06a94.046 94.046 0 0 1 5.88 9.13 58.361 58.361 0 0 1-14.63 1.93 15.885 15.885 0 0 1 8.75-11.06Zm-9.09 14.33c0-.17.01-.34.02-.5a58.5 58.5 0 0 0 16.27-2.26c.45.89.89 1.79 1.28 2.7-.21.05-.41.12-.62.18-8.56 2.76-12.89 10.46-12.89 10.46v.01a15.812 15.812 0 0 1-4.06-10.59Zm15.85 15.85a15.822 15.822 0 0 1-10.09-3.63 4.2 4.2 0 0 0 .35.27s3.04-6.62 12.44-9.9a.381.381 0 0 1 .1-.03 66.586 66.586 0 0 1 3.39 12.03 15.739 15.739 0 0 1-6.19 1.26Zm8.86-2.71a68.925 68.925 0 0 0-3.09-11.32 23.02 23.02 0 0 1 9.88.7 15.854 15.854 0 0 1-6.79 10.62Z" transform="translate(-1043.59 -3078.41)" style="fill:#fff;fill-rule:evenodd"/></svg>