<svg xmlns="http://www.w3.org/2000/svg" width="36.969" height="30.06"><path d="M968.845 3086.57a15.433 15.433 0 0 1-4.355 1.2 7.637 7.637 0 0 0 3.336-4.2 15.185 15.185 0 0 1-4.817 1.84 7.588 7.588 0 0 0-13.125 5.19 7.7 7.7 0 0 0 .2 1.73 21.519 21.519 0 0 1-15.637-7.93 7.592 7.592 0 0 0 2.347 10.13 7.552 7.552 0 0 1-3.437-.95v.1a7.6 7.6 0 0 0 6.088 7.44 7.783 7.783 0 0 1-2 .26 6.712 6.712 0 0 1-1.424-.14 7.6 7.6 0 0 0 7.082 5.28 15.235 15.235 0 0 1-9.418 3.24 15.463 15.463 0 0 1-1.812-.1 21.5 21.5 0 0 0 11.63 3.4c13.955 0 21.586-11.56 21.586-21.58 0-.33-.007-.66-.025-.98a15.423 15.423 0 0 0 3.781-3.93Z" transform="translate(-931.875 -3083)" style="fill:#fff;fill-rule:evenodd"/></svg>